<?xml version="1.0" encoding="utf-8"?>
<!-- Generator: Adobe Illustrator 26.1.0, SVG Export Plug-In . SVG Version: 6.00 Build 0)  -->
<svg version="1.1" id="Layer_1" xmlns="http://www.w3.org/2000/svg" xmlns:xlink="http://www.w3.org/1999/xlink" x="0px" y="0px"
	 viewBox="0 0 680 588" style="enable-background:new 0 0 680 588;" xml:space="preserve">
<style type="text/css">
	.st0{fill:#00AEEF;stroke:#00AEEF;stroke-width:0.4443;stroke-dasharray:0.89,0.89;}
	.st1{fill:#FFEEE3;}
	.st2{fill:#00AEEF;}
	.st3{fill:none;stroke:#00AEEF;stroke-width:0.8823;stroke-linecap:round;stroke-dasharray:5.56,5.56;}
	.st4{fill:#CEFCFF;}
	.st5{fill:none;stroke:#0F90E6;stroke-width:3.2651;}
	.st6{fill:none;stroke:#FFF8F3;stroke-width:3.2651;}
	.st7{fill:none;stroke:#FFCEB1;stroke-width:0.8507;}
	.st8{fill:#AD4702;}
	.st9{fill:#0F90E6;stroke:#0F90E6;stroke-width:0.8885;}
	.st10{fill:#0F90E6;}
	.st11{fill:#FFE9DC;stroke:#00AEEF;stroke-width:0.7763;}
	.st12{fill:#00AEEF;stroke:#AD4702;stroke-width:0.7763;}
	.st13{fill:#063D62;}
	.st14{fill:#4E2002;}
	.st15{fill:#D6858B;stroke:#D6858B;stroke-width:0.4203;}
	.st16{fill:#722D00;}
	.st17{fill:#FDE3D8;}
	.st18{fill:#FFDDBF;stroke:#000000;stroke-width:0.4203;}
	.st19{fill:#FFCCAD;}
	.st20{fill:none;stroke:#FFFFFF;stroke-width:0.4203;}
	.st21{fill:none;stroke:#000000;stroke-width:0.4203;}
	.st22{fill:#D6858B;}
	.st23{fill:#FFAE7D;}
	.st24{fill:#0F90E6;stroke:#000000;stroke-width:0.2102;}
	.st25{fill:#DFF2FF;}
	.st26{fill:#302663;}
	.st27{fill:#FFFFFF;}
	.st28{fill:none;stroke:#DCDCDC;stroke-width:0.7936;}
	.st29{fill:#FF96A7;}
	.st30{fill:none;stroke:#A24A51;stroke-width:0.4203;}
	.st31{fill:#E8C4D8;}
	.st32{fill:#D1868F;}
	.st33{fill:#FFECDF;}
	.st34{fill:#8591FF;}
	.st35{fill:#BFB5F7;}
	.st36{fill:#1A104E;}
	.st37{fill:#00AEEF;stroke:#00AEEF;stroke-width:0.4203;}
	.st38{fill:#312563;stroke:#312563;stroke-width:0.4203;}
	.st39{fill:#7061BE;}
	.st40{fill:#FFD5CA;}
	.st41{fill:#A14A51;}
	.st42{fill:none;stroke:#0F90E6;stroke-width:0.8885;stroke-dasharray:4.44,4.44;}
</style>
<path class="st0" d="M420.3,79.6l-12.9-8l2.5-7l-50.2-25.6L416,60.9L420.3,79.6z"/>
<path class="st1" d="M430.6,50.3L359,38.8l44.4,44.9l8.4-17.3L359,38.8l56.9,22.9L430.6,50.3z"/>
<path class="st2" d="M430.6,50.3l0-0.2l0.5,0.1l-0.4,0.3L430.6,50.3z M359,38.8l-0.2,0.2c-0.1-0.1-0.1-0.2,0-0.3
	c0-0.1,0.1-0.1,0.2-0.1L359,38.8z M403.5,83.6l0.2,0.1l-0.1,0.3l-0.2-0.2L403.5,83.6z M411.9,66.3l0.1-0.2l0.2,0.1l-0.1,0.2
	L411.9,66.3z M415.9,61.7l0.1,0.2l-0.1,0.1l-0.1,0L415.9,61.7z M430.5,50.5L359,39l0.1-0.4l71.5,11.6L430.5,50.5z M359.2,38.6
	l44.4,44.9l-0.3,0.3l-44.4-44.9L359.2,38.6z M403.3,83.5l8.4-17.3l0.4,0.2l-8.4,17.3L403.3,83.5z M411.8,66.5L358.9,39l0.2-0.4
	L412,66.1L411.8,66.5z M359.1,38.6L416,61.5l-0.2,0.4L358.9,39L359.1,38.6z M415.8,61.5l14.6-11.4l0.3,0.4l-14.6,11.4L415.8,61.5z"
	/>
<path class="st3" d="M111.3,321c22.4,235.5,262.6,258.4,335.1,220.1c69.6-36.8,214.5-136,86-331.8c-41.4-63.1-162.6-56.1-162.6,6.5
	c0,21.5,42.1,27.6,53.7,2.8c10.8-22.9-3.3-90.7-53.7-121c-87.9-52.9-181.3-45.3-229.4,20.6C98.3,175.7,103.3,237.3,111.3,321z"/>
<path class="st4" d="M229.9,397.7l22.6-5.1l-4.1,36.7l-6.6,5.1l5.9,1.1c-1,16.6-2.8,25.8-8,42l-7.3-1.1l6.4,3.5l-2.1,5.1l-6.9-5.1
	l4.6,6.4c-10.5,19.4-24.7,24.7-51,30.1c-16.6-38.1-19.1-59.3-5.5-80.4l12.4,6.7l-9.8-10.9c12.3-16,21.8-23.5,43.2-34.1l2.5,9.3
	L229.9,397.7z"/>
<path class="st5" d="M234.7,416.9c-9.2,12.8-16.2,23.8-22.1,34.9 M190.1,512.4c2.1-7.6,4.1-14.6,6.2-21 M196.3,491.4l-11.2-29.5
	 M196.3,491.4c4.8-15,9.8-27.4,16.4-39.6 M212.6,451.8c8.6-2.2,13.6-3.2,23.2-4.3"/>
<path class="st2" d="M124.4,387.9L96,382.5l5.2,39.6l8.3,5.5l-7.5,1.1c1.3,17.9,3.5,27.9,10.1,45.4l9.2-1.1l-8,3.7l2.6,5.5l8.6-5.5
	l-5.7,6.9c13.2,21,31,26.7,64.1,32.5c20.9-41.1,24-64,6.9-86.7l-15.5,7.2l12.4-11.8c-15.4-17.3-27.4-25.3-54.3-36.8L129,398
	L124.4,387.9z"/>
<path class="st6" d="M118.4,408.6c11.5,13.8,20.3,25.7,27.7,37.6 M174.4,511.7c-2.6-8.2-5.2-15.7-7.8-22.7 M166.6,489l14.1-31.9
	 M166.6,489c-6-16.2-12.4-29.5-20.5-42.8 M146.1,446.2c-10.8-2.4-17.1-3.4-29.1-4.6"/>
<g>
	<rect x="181.9" y="513.5" class="st2" width="39.1" height="34"/>
	<rect x="182.4" y="513.9" class="st7" width="38.3" height="33.2"/>
</g>
<g>
	<rect x="150.4" y="513.5" class="st8" width="32.3" height="34"/>
	<rect x="150.9" y="513.9" class="st7" width="31.5" height="33.2"/>
</g>
<path class="st9" d="M493.1,562.9l15.1-8.9l-3.1-8l67.1-35.5L498,538L493.1,562.9z"/>
<path class="st4" d="M478.9,526.4l94.2-16.4l-58.2,58.6L504.2,546l68.9-36L498,539.3L478.9,526.4z"/>
<path class="st10" d="M478.9,526.4l-0.1-0.4l-1.1,0.2l0.9,0.6L478.9,526.4z M573.1,510l0.3,0.3c0.1-0.1,0.2-0.3,0.1-0.5
	c-0.1-0.2-0.3-0.3-0.5-0.2L573.1,510z M514.9,568.6l-0.4,0.2l0.3,0.6l0.4-0.4L514.9,568.6z M504.2,546l-0.2-0.4l-0.4,0.2l0.2,0.4
	L504.2,546z M498,539.3l-0.2,0.4l0.2,0.1l0.2-0.1L498,539.3z M479,526.9l94.2-16.4l-0.2-0.9L478.8,526L479,526.9z M572.7,509.7
	l-58.2,58.6l0.6,0.6l58.2-58.6L572.7,509.7z M515.3,568.4l-10.7-22.7l-0.8,0.4l10.7,22.7L515.3,568.4z M504.4,546.4l68.9-36
	l-0.4-0.8l-68.9,36L504.4,546.4z M572.9,509.6l-75.1,29.3l0.3,0.8l75.1-29.3L572.9,509.6z M498.2,538.9l-19.1-12.9l-0.5,0.7
	l19.1,12.9L498.2,538.9z"/>
<rect x="107" y="287.5" class="st11" width="56.3" height="40.1"/>
<path class="st12" d="M135.4,307.2l-27.6-19.7h54.7L135.4,307.2z"/>
<path class="st13" d="M502.5,313.1c-9.8-1.2-14.3,0.1-20.5,5.4l-7.2-57.6L502.5,313.1z"/>
<path class="st14" d="M280.3,525.7v-10.8l23.2,10.1c1.4,4.6,1.1,7.1,0.7,11.5c-10.8,8.5-18.1,9.8-29.8,8.4c-2.5-0.3-4.4-2.3-4.7-4.8
	c-0.2-1.8,0.3-3.5,1.6-4.8L280.3,525.7z"/>
<path class="st15" d="M488.1,513.7l-0.7-2.3l14.4-4.3l2.3,6.5H488.1z"/>
<path class="st14" d="M516.7,519.4c-5-3.4-10.1-5.3-12.6-5.6h-16c-4.1,4.1-2.7,9.5-3.4,16.9h19.4c0-3.2,12.9-0.6,23.9,0
	c6.8,0,7.7-5.9,3.2-5.9C528.2,525,520.1,521.6,516.7,519.4z"/>
<path class="st15" d="M417,521.6V518l16.4-2l-0.7,5.4L417,521.6z"/>
<path class="st14" d="M419.2,539.2l-7-12.6H385v12.6c8.3,2.2,3.3,9.4,31.1,7.7c1.8-0.1,3.1-1.6,3.1-3.3V539.2z"/>
<path class="st16" d="M514.2,503.8l-31.8-185.3l-56.5,3.2l-26.1,21.2c-4.1,5-1.4,34,0,45.3c1.1,9-0.5,27.5-1.4,35.6l9.2,93
	c14.1,3.5,22,2.7,36-1.8c0.2-48.9,6.1-64.2,9.7-99.8l15.5,92.8C485.7,514.6,495.7,512.5,514.2,503.8z"/>
<path class="st14" d="M460.2,347.6l-6.8,67.6l15.5,92.8C473.2,447.1,472,411,460.2,347.6z"/>
<path class="st17" d="M482.5,318.5c-18.9,6.4-28.9,6.1-46.6,4.7l11.9-59.2l-26.6-58.5l6.8-26.8h26.8l12.6,18.9l4.3,27.7L482.5,318.5
	z"/>
<path class="st16" d="M353.2,319.2c-11.7,1.3-18.2,1.3-29.5,0l-32,24.3L275.3,520c10.3,10.6,18.1,11.6,35.8,4.3l29.3-164.8
	l36.3,169.1c18.8,5.3,28,6.2,35.8-4.3l-26.8-205.1H353.2z"/>
<path d="M396.9,244.7l-18-41.2l3.6,32.2L396.9,244.7z"/>
<path class="st18" d="M323.1,181.6l-5.9,4.3l1.8,132.6c13.9,2,22,2.1,36.9,0l3.4-132.4l-8.1-5.4c0,1.6,0.9,5.3,1.4,7L339,198.5
	l-16.4-13.1L323.1,181.6z"/>
<path class="st19" d="M352.8,167.4c-2.4,4.6-2.9,7.5-1.6,13.3c0.5,2.2,1.7,6.6,2.3,7c0.5,0.4-9.1,8-14,11.7l-17.1-13.7l0.9-4.5
	c2-2.9,1.8-7.2-0.9-13.7H352.8z"/>
<path class="st16" d="M320.6,207.1l8.3-9h19.6l7.9,9l-1.1,4.5l-6.8-13.5h-19.6l-7.4,15.8L320.6,207.1z"/>
<path class="st16" d="M348.5,198c-8.1,1.5-12.5,1.4-19.8,0l-1.1,2.5l4.7,0.9c-0.3,4.1,0.1,6,2.7,8.1l-10.6,92.8l14,9.7l13.1-8.3
	l-9.5-94.1c1.7-1.3,2.7-3.3,2.6-5.4l-0.1-2.7l5.4-0.9L348.5,198z"/>
<path class="st2" d="M398.3,332.3c-9.5-47.5-22.6-74.6-15.1-95.9l-6.3-45.5l-17.3-5.4c-12.2,71.6-19.8,111,0.5,149.7
	C369.9,354.1,387.9,351.4,398.3,332.3z"/>
<path class="st20" d="M366.7,187.9l5,23.6l-5,3.8l6.8,3.2c-14,23.2-18.9,37.1-25,62.8"/>
<path class="st21" d="M285.2,235.6c4.1-10,12.5-31,13.1-35.4c0.5-4.3-2.8,21.5-4.5,34.9l-9.2,6.5L285.2,235.6z"/>
<path class="st21" d="M406.4,282.5l5-31.8c-2.3,10.6-7.1,31.8-7.7,31.8c-0.5,0,12.8,30.3,19.6,45.5l-2.5,2.9l1.6,1.4l0.3-0.3
	c3.3-2.9,4.2-7.6,2.3-11.5L406.4,282.5z"/>
<path class="st21" d="M489.9,238.8c16,11.8,25,17.4,38.5-3.6"/>
<path class="st22" d="M506.3,159.1c3.6,5.6,8.1,2.3,9,11.7c4.4,0.1,13,0.3,12.6-0.2c-0.5-0.7,0-3.2,0.5-5.6c0.4-2,1.8-6.2,2.5-8.1
	l-5.6-16.2c-0.9-0.7-1.4-0.8-2.3,0l-1.8,0.2c-1.2-2.8-2.4-2.3-5,0c-0.5-2.4-1.4-2.9-3.6-2.7l-7.4,8.9c-1.4,1.7-1.8,4.1-1.1,6.2
	L506.3,159.1z"/>
<path class="st19" d="M310,133.9c5-1.8,10.1,1.1,12.6,3.6l-0.5-7.7l5-2.3c4.1,1.5,12.4,4.5,12.6,4.5c0.2,0,8-3,11.9-4.5l6.5,7
	c1.3-0.2,4.4-0.7,6.8-0.7c2.9,0,5.4,0.7,6.3,2.5c0.9,1.8,4.3,3.8,5.9,5c1.6,1.1,4.5,11.3,6.1,18.5c1.3,5.8,3.7,8.7,4.7,9.5
	l-11.5,9.2l-4.3-7.9l-9.7-3.2l-0.7-3.2l-18.9-12.6l-12.2,2.9l-14.2,8.1l-1.1,2.5c0.7,3.4-8.8,3.6-10.6,6.5l-4.5,6.8
	c-4.9-3.4-7.6-5.3-11-9.2C294.9,165.2,291.3,140.6,310,133.9z"/>
<path class="st16" d="M327.6,129.8c-3.8-1.3-5.2,5.5-4.5,9c-2.4-2.4-3.7-3.1-6.1-3.8c-2.3-20.5,23.9-19.6,35.8-18.7
	c14.9,1.1,9.7,11,6.3,14.4v4.3l-5,2.5c1.2-3.2-0.8-9.4-4.1-7.2C336.8,139.5,332.3,131.4,327.6,129.8z"/>
<path class="st10" d="M183,157.1c-0.9,0.2-0.7,1-0.5,1.4l-0.2,1.1l8.6,5.4l2.9-4.3l2.3,0.5l0.4-2.7c7.1,4.5,14-13,9.5-19.8
	c-1.4-2-7-3.4-19.1-6.5c-8.1-2.1-17.4-13.4-20-18.7c-11-13.9-24.5,8.1-26.6,22.1c-1.1,7.7,0.4,21.5,9,19.8c10.4-2,12.4-7.9,30.2-3.6
	c3,0.7,3.3,2.7,3.6,2.7c-0.2,0.2-0.7,0.9-0.7,1.6C182.3,156.8,184.1,156.8,183,157.1z"/>
<path class="st10" d="M185.2,218.5c20.7-24.1-2.5-39.9,71.2-38.3c5.6,0,14,1.8,18.7,10.4l-7.4,57.2c0.2,8.6,2.5,28.6,2.5,28.6
	c-1.6,5.6-47.7,13.1-59.7,1.6c7.2-46.4-12.2-26.1-8.8-52C199,219.9,194.1,218.1,185.2,218.5z"/>
<path class="st19" d="M203.9,413.1c0-7.7-3.2-17.9-4.7-22.1l28.8,4.7c-2,4.7-3.1,6.8-2,9.2c9,21.6,2.7,56.3-0.4,73.2
	c-2.5,13.5,1.2,22,3.6,24.3l-2.7,8.8l-14.9,14.2l-13.1-0.9c4.4-4,13.6-13.2,15.5-18.2c2.5-6.3-3.6-37.6-5.4-43.5
	C206.9,457,203.9,422.8,203.9,413.1z"/>
<path class="st19" d="M252.6,413.1c0-7.7-3.2-17.9-4.7-22.1l28.8,2.7c-2,4.7-3.1,8.8-2,11.3c9,21.6,2.7,56.3-0.5,73.2
	c-2.5,13.5,1.2,22,3.6,24.3l-2.7,8.8l-14.9,14.2l-13.1-0.9c4.4-4,13.6-13.2,15.5-18.2c2.5-6.3-3.6-37.6-5.4-43.5
	C255.5,457,252.6,422.8,252.6,413.1z"/>
<path class="st23" d="M228.7,413.5c-9.6-13.1-15.5-16.7-27.2-16.4l-2-6.5c9.2,2,27.7,6.2,27.7,6.5c0,0.5-1.8,5.4-1.8,6.1
	C225.3,403.7,227.6,410.3,228.7,413.5z"/>
<path class="st23" d="M277.3,413.5c-9.6-13.1-15.5-16.7-27.2-16.4l-2-6.5c9.2,2,28.1,3,28.1,3.4c0,0.4-2.9,6.8-2,9.7
	C274.9,406.1,277.3,411.3,277.3,413.5z"/>
<path class="st14" d="M208,521.9c8.6,0,15.3-15.5,20.5-21.8c7.5,9.6,4.9,17.4,3.6,29.9h-2.9c-0.2-3.5-0.9-11-1.6-13.5
	c-0.9-3-1.6-2.3-2-1.6c-0.5,0.8-4.9,10.2-6.8,15.1h-26.1C193,521.9,198.4,522,208,521.9z"/>
<path class="st14" d="M256.6,521.9c8.6,0,15.3-15.5,20.5-21.8c7.5,9.6,4.9,17.4,3.6,29.9h-2.9c-0.2-3.5-0.9-11-1.6-13.5
	c-0.9-3-1.6-2.3-2-1.6c-0.5,0.8-4.9,10.2-6.8,15.1h-26.1C241.6,521.9,247.1,522,256.6,521.9z"/>
<path class="st19" d="M231.2,176.2c1.1-3.8,0.5-7.9,0-9.5l16.9-8.8c-0.4,3.7-1.6,13.5,1.4,22.7c2.9,9.2,1.8,27.2-18.2,26.3
	C211.1,206.2,229.8,180.9,231.2,176.2z"/>
<path class="st19" d="M201.9,226.2c-7.6,9.9-20.7,24.5-29.9,22.3c-10.1-2.5-7.7-12.6-3.8-24.8c3.8-12.2,14-39.6,13.3-41
	c-0.7-1.4-1.4,0-3.8-2.7c-2.5-2.7-7.2-8.8-7.4-10.4c-0.2-1.6,1.4-2.3,1.4-2.3c-1.4-1.8-1.4-5,2.5-3.8c-0.4-2.8,0.1-3.8,3.2-3.4
	c0-3.6,2.5-4.3,5-2c0.6,0.2,2.1,0.7,3.4,0.7c1.6,0,3.8,0.2,4.5,1.4c0.7,1.1,0.5,3.4,1.1,4.1c0.7,0.7,1.8,2.7,2,5
	c0.2,2.3-1.8,11-2.5,12.8c-0.7,1.8-4.3,34.6-4.3,36.4C196.4,218.4,199,220.8,201.9,226.2z"/>
<path class="st24" d="M173.3,171.7l-1.8,2.5c-4.3-2-4.4,1.2-3.4,2c2,1.6,11.9,4.5,12.4,4.5c0.5,0,2.3-3.2,2-3.8
	c-0.2-0.7-0.4-1.6-0.7-4.1c-0.2-2,2.7-3.6,4.1-4.5c-0.2-5.2-5.4-5.9-7-5.2c-1.6,0.7-1.4,2.9-1.6,3.6c-0.2,0.7-4.1,1.8-3.6,2.9
	C174.1,170.6,173.6,171.4,173.3,171.7z"/>
<path class="st16" d="M215,140.4c0.9,12.8-4.3,23.3-7,27c26.6,12.5,40.7,12.2,64-4.5c-2.7-2.7-11.6-6.4-9.5-23.9
	c2.7-21.8-15.3-32.9-29.3-30.4C219.2,111.1,213.8,124.4,215,140.4z"/>
<path class="st19" d="M228.9,125.3c-0.7,0.7-6.2,5-8.8,7c-0.1,24,2.3,32.2,11,34.9c16.7,5.2,29.7-27.7,20.9-27
	c-1.1,0.1-2.3,2.9-3.2,2.9c-0.9,0-9-2.9-11-8.3C235.9,129.4,229.8,124.4,228.9,125.3z"/>
<ellipse transform="matrix(0.317 -0.9484 0.9484 0.317 -19.9178 236.4178)" class="st25" cx="154.2" cy="132" rx="22.5" ry="11.7"/>
<path class="st10" d="M156,127.8c1.4,0.2,3.8,2.3,10.6,2.7c0.2,6.3-0.2,17.5-3.8,11.9c-3.6-5.6-8.8-5.6-10.1-5.9
	C156.7,133,158,131.3,156,127.8z"/>
<ellipse transform="matrix(0.3539 -0.9353 0.9353 0.3539 -23.9957 229.5391)" class="st26" cx="154.1" cy="132.1" rx="4.7" ry="2.8"/>
<path class="st27" d="M219.2,215.2c19-4.1,27.3-4.3,42.1-4.5c0.2,27,1.9,39.4,4.5,62.4l-41.2,1.1L219.2,215.2z"/>
<path class="st28" d="M225.3,232.1c11.1-2.3,17.5-3,29.8-2.8"/>
<path class="st28" d="M225.3,236.5C234,234,240,234,240,234"/>
<path class="st28" d="M225.7,240c7.1-2.4,11.9-2.4,11.9-2.4"/>
<path class="st28" d="M242.3,233.7c4.8-0.4,12.7-0.4,12.7-0.4"/>
<path class="st28" d="M240,237.2c2.8-0.5,10.7-0.6,15.1-0.4"/>
<path class="st28" d="M228,243.9c10.4-2,16.5-2.4,27.8-1.6"/>
<path class="st28" d="M228,250.1c10.4-2,16.5-2.4,27.8-1.6"/>
<path class="st28" d="M228,261.2c10.4-2,16.5-2.4,27.8-1.6"/>
<path class="st28" d="M228,265.2c10.4-2,16.5-2.4,27.8-1.6"/>
<path class="st28" d="M228,270c10.4-2,16.5-2.4,27.8-1.6"/>
<path class="st28" d="M225.3,220.5c11.1-2.3,17.5-3,29.8-2.8"/>
<path class="st28" d="M225.3,224.9c8.7-2.4,14.7-2.4,14.7-2.4"/>
<path class="st28" d="M225.7,228.4c7.1-2.4,11.9-2.4,11.9-2.4"/>
<path class="st28" d="M242.3,222.1c4.8-0.4,12.7-0.4,12.7-0.4"/>
<path class="st28" d="M240,225.7c2.8-0.5,10.7-0.6,15.1-0.4"/>
<path class="st29" d="M271.9,263.6c22.4,1,23.4-7,17.1-29.7c-9.6,4.4-29.9,13.2-34.5,13.7c-5.6,0.7-13.7-1.1-16.2-2
	c-2.5-0.9-3.6-4.7-3.6-5.6c0-0.9-7.7-5.4-9-4.7c-1.4,0.7,2.3,4.7,3.4,4.7c1.1,0,0,1.1-1.1,0.9c-1.1-0.2-8.6-2.7-8.6-0.9
	c0,1.4,1.5,2.6,2.3,2.9c-0.3-0.1-1.4-0.2-3.4,0.7c-2,0.9-0.1,3.1,1.1,4.1l-1.1,2l2.5,2.3l-1.4,1.6c1.7,1.8,5.1,5.4,5.6,5.4
	c0.7,0,13.5-1.4,15.8,0C242.7,259.9,262.3,262.4,271.9,263.6z"/>
<path class="st2" d="M300.1,186.1c-8.5-2.2-13-9.5-14.2-12.8l-19.7,28.8c-5,7.3-8.3,15.6-9.9,24.3l-0.2,1.3
	c-1.3,7.3,1.2,14.7,6.6,19.7c2.6,2.4,6.5,2.8,9.6,1l21.4-13.1c7.9,25.2-16.2,99.5-22.1,97.7c45.3,39.3,61.7-10.8,54.5-84l-9.2-62.8
	l-14.6,3.6c2.2-3.2,2-4.7,0-7L300.1,186.1z"/>
<path class="st20" d="M309.5,187.9l-5,23.6l5,3.8l-6.8,3.2c14,23.2,18.9,37.1,25,62.8"/>
<path class="st19" d="M435,159.5c-5.4-2-8.3-8.6-3.6-11.7l3.4-2l0.9-13.3l20-5.6l11.5,9.9c-0.6,24-0.5,26.2-12.2,37.4
	c-2.1,2,0.4,16.7-2.1,20.2c-8.4,11.4-25.3-6.5-22.2-14.5C435.6,170.8,435,166.9,435,159.5z"/>
<path class="st30" d="M450.7,160c1.8,2.3,5.9,4.1,10.1,0.7"/>
<path class="st10" d="M427.8,178.9c-12,4.6-18,7.3-27.9,12.4l-27.7,57.9l16.4,93.4c0,0,14.1,7.3,43-9.7c5-3,8.2-8.2,9.1-13.9
	l8.7-56.3l-25.9-59.4L427.8,178.9z"/>
<path class="st10" d="M465.6,201.6l-11.9-23.4c33.1,5.4,33.3,21.6,51.1,38.7c3.1-15.5,4.7-24.3,6.3-41c10.2-1.9,15.8-1.2,25.2,3.2
	l-5.2,44.8c-4.5,30.6-21.8,40.1-41,15.1c14.3,25.2,26.5,37.5,52,57.9c-13.3,25.6-22.6,27.3-40.3,23.2l-27-52.7L465.6,201.6z"/>
<path class="st13" d="M406.4,282.5l5-31.8c-2.3,10.6-7.1,31.8-7.7,31.8c-0.5,0,12.8,30.3,19.6,45.5l-2.5,2.9l1.6,1.4l0.3-0.3
	c3.3-2.9,4.2-7.6,2.3-11.5L406.4,282.5z"/>
<path class="st14" d="M412.7,524.3l4.3-2.7h15.8c1.6,5.9,1.8,8.3,1.8,14.2c0,1.6-1.3,2.9-2.9,2.9H419l-9.2-11L412.7,524.3z"/>
<path class="st16" d="M199.2,390.8c5.4-42.8-9.9-49.8,11.3-113l59.7-1.8c18.4,43.5,7.7,72.5,7.9,118.4
	C232.3,400.3,216.3,398.9,199.2,390.8z"/>
<path class="st31" d="M403.4,340.6c6.6-0.4,10.5-2.5,17.3-9.7l2.3,2c0.7,0.6,0.8,1.7,0.1,2.4c-6,6.2-9.9,8.6-15.7,10.3
	c-0.8,0.2-1.6-0.1-1.9-0.9L403.4,340.6z"/>
<path class="st32" d="M413.6,352.7l-5.2-7.4l12.8-10.1l3.8,5.2C420.9,347.3,418.3,349.5,413.6,352.7z"/>
<path class="st13" d="M489.9,238.8c16,11.8,24.1,17.1,38.7-3.6C521.7,259.7,505.7,258.8,489.9,238.8z"/>
<path class="st16" d="M436.1,155c-0.5-6.1-4.7-7.7-5.2-6.8c0,0.1-0.1,0.1-0.1,0.2c-10-22,9.3-32.9,16.3-28.8
	c6.5,3.8,9.9,0.3,15.1-0.9c14.6-3.4,16.5,11.2,10.1,21.2l-0.7-6.8c-0.5,7.9-5.9,7.4-9.5,0.9c-1.1-3.4-23.6-8.1-23.6,10.1
	C438.6,150.3,440.2,154.9,436.1,155z"/>
<path class="st2" d="M372.1,185.4l3.2,5l3.2,12.4c5.3,15.7,9.9,25.6,17.3,39.8c3.9,7.5,13,10.7,20.8,7.3c9-3.9,12.5-15,7.3-23.3
	l-33-53.7c-3.8,8.5-7.4,10.4-14.2,13.3l-2-3.4L372.1,185.4z"/>
<path class="st23" d="M325.1,175.8c0-3.8-2-7.7-2.9-9.2l32-2.3c-2.8,5.1-4.8,9-3.8,13.7C341.6,182.4,325,182.3,325.1,175.8z"/>
<path class="st19" d="M337.9,177.3c-9.1,0-15.3-8.6-17.3-13.7l4.1-9l18.7-2.9l11.3,11.9C354.1,165.8,345.8,177.3,337.9,177.3z"/>
<ellipse class="st33" cx="337" cy="167.9" rx="7" ry="2"/>
<path class="st27" d="M238.4,158.2c0,1.7-1.5,3.2-5.4,3.2c-3.9,0-4.7-1.4-4.7-3.2s0.9,0.9,4.7,0.9
	C236.8,159.1,238.4,156.4,238.4,158.2z"/>
<path class="st10" d="M351.9,144.2c-10.6-3.5-16.3-3.1-26.1,0l-0.9,0.7l0.9,18c1.1,0.4,3.9,0.4,6.1-2.7c2.7-3.8,1.1-4.7,4.5-4.7h6
	c0.3,0,0.6,0.2,0.7,0.4c3.5,6.1,5.9,8,11.2,8.8L351.9,144.2z"/>
<circle class="st10" cx="359.8" cy="153.7" r="12.6"/>
<path class="st34" d="M369.7,153.7c0-2.6-1-5.1-2.9-7c-1.9-1.9-4.4-2.9-7-2.9c-2.6,0-5.1,1-7,2.9c-1.9,1.9-2.9,4.4-2.9,7h9.9H369.7z
	"/>
<circle class="st10" cx="317.9" cy="153.7" r="12.6"/>
<path class="st34" d="M327.8,153.7c0-2.6-1-5.1-2.9-7c-1.9-1.9-4.4-2.9-7-2.9c-2.6,0-5.1,1-7,2.9c-1.9,1.9-2.9,4.4-2.9,7h9.9H327.8z
	"/>
<g>
	<circle class="st35" cx="313.6" cy="149.4" r="2"/>
</g>
<g>
	<circle class="st35" cx="355.9" cy="149.4" r="2"/>
</g>
<rect x="336.3" y="144.7" class="st36" width="4.1" height="2.3"/>
<path class="st10" d="M513,154.5c2.9-0.1,4.2,0.2,5.7,1.8H539V141h-27.9H508l-2.1,2.1h-20.3l-1.6,1.6h-10.4c-2.2,0-3.9,1.7-3.9,3.9
	s1.8,3.9,3.9,3.9h10.7l1.3,1L513,154.5z"/>
<path class="st37" d="M542.3,137.8l41.4-1v23l-41.3-0.8c-5.8-0.1-10.4-4.8-10.4-10.6C531.9,142.6,536.5,137.9,542.3,137.8z"/>
<path class="st38" d="M585.1,159.8c-2,0-3.8-1.3-5.2-3.3c-1.3-2.1-2.2-5-2.2-8.2c0-3.2,0.8-6.1,2.2-8.2c1.3-2.1,3.2-3.3,5.2-3.3
	c2,0,3.8,1.3,5.2,3.3c1.3,2.1,2.2,5,2.2,8.2c0,3.2-0.8,6.1-2.2,8.2C588.9,158.5,587.1,159.8,585.1,159.8z"/>
<path class="st39" d="M588.3,154.5c-0.3-6.5-4.4-8.3-8.9-4.9C581.5,132.4,596.1,143.8,588.3,154.5z"/>
<path class="st22" d="M504.9,148l6-7.6c3.4,3.3,2.7,6.1,0.7,8.8c-0.7,1.3,0.1,2.8,0.9,5.4c3.3-0.4,4.3-0.5,6.3,1.8h12.4l-1.8,5.9
	c-0.2,0.6-0.3,1.2-0.4,1.8l-1,6.9h-13.3c0.5-4.8-1.7-6.9-6.7-9.5c-1.1-0.6-1.9-1.5-2.2-2.7l-1.8-6.8
	C503.6,150.7,504,149.2,504.9,148z"/>
<path class="st40" d="M513.8,171v4.5c6.8-0.9,11-0.3,19.1,2.3l0.5-5.2C525.2,169.3,521,169.4,513.8,171z"/>
<g>
	<path class="st41" d="M454.1,166.6c-0.1-0.2,0.2-0.4,0.4-0.3c0.7,0.5,1.3,0.5,2,0.2c0.2-0.1,0.4,0.1,0.3,0.3l0,0
		c0,0.1-0.1,0.1-0.1,0.1c-1,0.5-1.6,0.5-2.6-0.2C454.1,166.7,454.1,166.6,454.1,166.6L454.1,166.6z"/>
</g>
<circle class="st27" cx="252.6" cy="151.4" r="1.8"/>
<circle class="st42" cx="469.3" cy="78.3" r="16.9"/>
<ellipse transform="matrix(0.1602 -0.9871 0.9871 0.1602 25.7542 847.2064)" class="st42" cx="510.8" cy="408.5" rx="16.9" ry="16.9"/>
<circle class="st42" cx="67.1" cy="347.1" r="16.9"/>
</svg>
